<?xml version="1.0" standalone="no"?>
<!DOCTYPE svg PUBLIC "-//W3C//DTD SVG 20010904//EN"
 "http://www.w3.org/TR/2001/REC-SVG-20010904/DTD/svg10.dtd">
<svg version="1.0" xmlns="http://www.w3.org/2000/svg"
 width="700.000000pt" height="700.000000pt" viewBox="0 0 700.000000 700.000000"
 preserveAspectRatio="xMidYMid meet">
<metadata>
Created by potrace 1.14, written by Peter Selinger 2001-2017
</metadata>
<g transform="translate(0.000000,700.000000) scale(0.100000,-0.100000)"
fill="#000000" stroke="none">
<path d="M3328 6895 c-1 -1 -43 -5 -93 -9 -49 -4 -101 -8 -115 -10 -14 -2 -45
-7 -70 -10 -25 -4 -56 -9 -70 -11 -14 -2 -45 -7 -70 -10 -71 -10 -306 -71
-426 -110 -514 -172 -959 -449 -1349 -839 -342 -342 -582 -704 -755 -1137
-158 -392 -234 -790 -234 -1224 0 -208 30 -523 59 -625 2 -8 7 -31 10 -50 10
-63 67 -285 75 -293 4 -5 4 11 -1 35 -8 43 -13 315 -5 353 2 11 7 52 10 90 27
271 143 655 301 997 150 325 319 598 539 872 165 204 335 376 560 564 255 214
592 409 882 512 336 119 692 154 975 95 298 -62 480 -220 522 -453 7 -37 12
-76 11 -87 -4 -52 -15 -123 -24 -155 -6 -19 -13 -48 -16 -65 -3 -16 -9 -34
-15 -40 -5 -5 -9 -15 -9 -23 0 -8 -18 -51 -41 -95 -41 -82 -247 -450 -278
-497 -9 -14 -35 -65 -58 -115 -166 -365 -203 -787 -97 -1114 25 -77 92 -219
123 -260 l17 -23 44 59 c254 341 590 577 895 629 17 3 48 9 69 14 21 5 98 7
170 6 151 -4 273 -31 398 -89 264 -122 457 -354 514 -616 28 -132 12 -406 -36
-600 -40 -162 -141 -385 -240 -531 -320 -471 -898 -842 -1503 -965 -171 -34
-233 -40 -437 -39 -192 0 -279 13 -432 64 -404 135 -745 471 -919 907 -63 158
-121 386 -134 533 -4 36 -8 76 -11 90 -6 34 -6 366 0 410 3 19 8 64 11 100 31
340 161 784 344 1175 29 60 52 124 53 141 4 112 -116 173 -208 105 -51 -38
-206 -198 -276 -286 -251 -316 -477 -745 -604 -1145 -49 -157 -102 -406 -124
-590 -18 -139 -19 -465 -4 -600 44 -377 178 -715 387 -975 48 -58 192 -204
257 -258 142 -119 402 -264 610 -341 492 -180 1118 -209 1730 -81 69 14 139
30 155 35 320 97 469 153 668 252 601 300 1101 780 1387 1332 121 232 203 448
254 666 22 94 31 143 51 275 12 74 15 419 5 495 -19 147 -26 187 -50 280 -88
346 -265 630 -515 830 -173 139 -427 245 -655 275 -30 4 -64 9 -75 12 -24 4
-296 4 -340 -1 -101 -12 -150 -19 -235 -36 -52 -11 -95 -18 -96 -17 -2 1 26
47 62 102 199 308 303 622 304 915 1 113 -5 159 -31 265 -20 80 -30 106 -76
200 -144 293 -508 559 -913 669 -110 29 -137 35 -250 50 -25 4 -61 9 -80 12
-37 6 -476 14 -482 9z"/>
<path d="M3221 5859 c-124 -24 -306 -107 -306 -139 0 -5 -25 -28 -55 -51 -103
-77 -159 -131 -228 -217 -78 -98 -176 -262 -202 -337 -16 -48 -18 -50 -56 -51
-49 -1 -95 -25 -140 -72 -40 -42 -89 -120 -81 -128 3 -3 21 -1 40 5 50 17 76
22 135 25 47 3 52 1 52 -18 0 -12 -6 -39 -14 -61 -17 -47 -12 -63 37 -114 20
-21 37 -47 37 -57 0 -13 3 -15 11 -7 9 9 25 4 64 -18 73 -41 88 -42 137 -9 24
17 46 30 49 30 12 0 29 -89 29 -154 0 -36 4 -66 8 -66 11 0 69 66 97 110 27
43 43 114 35 155 -5 26 -1 33 29 54 58 40 83 62 166 146 122 122 219 275 275
430 12 33 25 69 30 80 31 71 44 247 28 355 -14 87 -16 99 -23 110 -7 12 -91
11 -154 -1z"/>
</g>
</svg>
