<?xml version="1.0" encoding="UTF-8" standalone="no" ?>
<!DOCTYPE svg PUBLIC "-//W3C//DTD SVG 1.1//EN" "http://www.w3.org/Graphics/SVG/1.1/DTD/svg11.dtd">
<svg xmlns="http://www.w3.org/2000/svg" xmlns:xlink="http://www.w3.org/1999/xlink" version="1.1" width="500" height="500" viewBox="0 0 500 500" xml:space="preserve">
<desc>Created with Fabric.js 4.6.0</desc>
<defs>
</defs>
<g transform="matrix(1 0 0 1 153.64 226.22)" id="dRHTQx7mksD13muZ79UXO"  >
<linearGradient id="SVGID_7" gradientUnits="userSpaceOnUse" gradientTransform="matrix(1 0 0 1 0 0)"  x1="46.5329" y1="84.1708" x2="160.082" y2="84.1708">
<stop offset="0%" style="stop-color:rgb(255,193,163);stop-opacity: 1"/>
<stop offset="100%" style="stop-color:rgb(255,177,187);stop-opacity: 1"/>
</linearGradient>
<path style="stroke: none; stroke-width: 1; stroke-dasharray: none; stroke-linecap: butt; stroke-dashoffset: 0; stroke-linejoin: miter; stroke-miterlimit: 4; fill: url(#SVGID_7); fill-rule: nonzero; opacity: 1;" vector-effect="non-scaling-stroke"  transform=" translate(-103.29, -84.18)" d="M 153.7 114.1 C 151.2 118.5 147.79999999999998 122.69999999999999 143.7 126.5 C 134.5 135 122.6 140 110.19999999999999 141.3 C 85.39999999999999 143.9 61.999999999999986 131.5 65.69999999999999 101.10000000000001 C 66.89999999999999 91.4 70.69999999999999 82.20000000000002 76.39999999999999 74.20000000000002 C 78.19999999999999 71.60000000000002 80.39999999999999 69.00000000000001 82.8 67.00000000000001 C 83.6 66.30000000000001 84.8 66.30000000000001 85.6 67.00000000000001 C 86.1 67.40000000000002 86.39999999999999 68.00000000000001 86.39999999999999 68.60000000000001 C 86.39999999999999 68.9 86.3 69.2 86.19999999999999 69.60000000000001 C 71.79999999999998 98.9 81.69999999999999 121 97.69999999999999 126.4 C 113.89999999999999 131.8 143.7 117.80000000000001 143.29999999999998 93.7 C 143.49999999999997 86.4 137.39999999999998 79.9 129.39999999999998 78.8 C 122.49999999999997 77.89999999999999 114.09999999999998 80.89999999999999 107.19999999999997 90.89999999999999 C 101.79999999999997 83.3 103.39999999999998 72.19999999999999 107.29999999999997 65.19999999999999 C 109.49999999999997 61.19999999999999 111.89999999999996 57.59999999999999 113.19999999999997 54.19999999999999 C 113.19999999999997 54.19999999999999 113.19999999999997 54.19999999999999 113.19999999999997 54.19999999999999 C 114.59999999999998 50.499999999999986 114.59999999999998 47.09999999999999 111.59999999999998 43.89999999999999 C 106.59999999999998 38.599999999999994 88.19999999999999 36.49999999999999 69.49999999999997 54.19999999999999 C 63.3 60 58.4 66.9 54.7 74.5 C 46.900000000000006 90.7 48.900000000000006 100.6 49.1 101.5 C 38.4 65.9 62.4 33.8 93.7 27.7 L 93.8 27.7 C 98.6 26.8 103.6 26.5 108.6 26.9 C 113.6 27.299999999999997 118.39999999999999 28.7 122.6 31.299999999999997 C 142.7 43.599999999999994 126 65 126 65 C 156.3 57.5 168.7 88.5 153.7 114.1 z" stroke-linecap="round" />
</g>
<g transform="matrix(1 0 0 1 132.25 206.46)" id="4_zv-Q9cFTuCkCZn84GwE"  >
<linearGradient id="SVGID_8" gradientUnits="userSpaceOnUse" gradientTransform="matrix(1 0 0 1 0 0)"  x1="46.532" y1="64.4258" x2="117.3147" y2="64.4258">
<stop offset="0%" style="stop-color:rgb(239,194,235);stop-opacity: 1"/>
<stop offset="100%" style="stop-color:rgb(175,193,238);stop-opacity: 1"/>
</linearGradient>
<path style="stroke: none; stroke-width: 1; stroke-dasharray: none; stroke-linecap: butt; stroke-dashoffset: 0; stroke-linejoin: miter; stroke-miterlimit: 4; fill: url(#SVGID_8); fill-rule: nonzero; opacity: 1;" vector-effect="non-scaling-stroke"  transform=" translate(-81.9, -64.42)" d="M 113.1 54.2 C 114.5 50.5 114.5 47.1 111.5 43.900000000000006 C 106.5 38.60000000000001 88.1 36.50000000000001 69.4 54.2 C 63.3 60 58.4 66.9 54.7 74.5 C 46.7 91.1 49 101.1 49.1 101.6 C 38.4 65.9 62.3 33.8 93.7 27.7 L 93.8 27.7 L 93.89999999999999 27.7 C 115.1 24.7 122.9 36.6 113.1 54.2 z" stroke-linecap="round" />
</g>
<g transform="matrix(1 0 0 1 160.69 246.09)" id="WQdUpEJVfNqF5mw9QakR0"  >
<linearGradient id="SVGID_9" gradientUnits="userSpaceOnUse" gradientTransform="matrix(1 0 0 1 0 0)"  x1="65.304" y1="104.0571" x2="155.3375" y2="104.0571">
<stop offset="0%" style="stop-color:rgb(175,193,238);stop-opacity: 1"/>
<stop offset="100%" style="stop-color:rgb(239,194,235);stop-opacity: 1"/>
</linearGradient>
<path style="stroke: none; stroke-width: 1; stroke-dasharray: none; stroke-linecap: butt; stroke-dashoffset: 0; stroke-linejoin: miter; stroke-miterlimit: 4; fill: url(#SVGID_9); fill-rule: nonzero; opacity: 1;" vector-effect="non-scaling-stroke"  transform=" translate(-110.34, -104.06)" d="M 153.8 114.1 C 153.7 114.1 153.7 114.1 153.8 114.1 C 151.20000000000002 118.5 147.9 122.69999999999999 143.70000000000002 126.5 C 134.50000000000003 135 122.60000000000002 140 110.20000000000002 141.3 C 85.40000000000002 143.9 62.000000000000014 131.5 65.70000000000002 101.10000000000001 C 66.90000000000002 91.4 70.70000000000002 82.20000000000002 76.40000000000002 74.20000000000002 C 78.20000000000002 71.60000000000002 80.40000000000002 69.00000000000001 82.80000000000003 67.00000000000001 C 83.60000000000002 66.30000000000001 84.80000000000003 66.30000000000001 85.60000000000002 67.00000000000001 C 86.10000000000002 67.40000000000002 86.40000000000002 68.00000000000001 86.40000000000002 68.60000000000001 C 86.40000000000002 68.9 86.30000000000003 69.2 86.20000000000002 69.60000000000001 C 71.80000000000001 98.9 81.70000000000002 121 97.70000000000002 126.4 C 113.90000000000002 131.8 143.70000000000002 117.80000000000001 143.3 93.7 C 143.5 86.4 137.4 79.9 129.4 78.8 C 143.9 78 160.6 95.4 153.8 114.1 z" stroke-linecap="round" />
</g>
<g transform="matrix(1 0 0 1 137.65 205.99)" id="ZCAvTcMZlUFPPE7161mAB"  >
<linearGradient id="SVGID_10" gradientUnits="userSpaceOnUse" gradientTransform="matrix(1 0 0 1 0 0)"  x1="84.3123" y1="63.8671" x2="90.1882" y2="63.8671">
<stop offset="0%" style="stop-color:rgb(239,194,235);stop-opacity: 1"/>
<stop offset="100%" style="stop-color:rgb(175,193,238);stop-opacity: 1"/>
</linearGradient>
<path style="stroke: none; stroke-width: 1; stroke-dasharray: none; stroke-linecap: butt; stroke-dashoffset: 0; stroke-linejoin: miter; stroke-miterlimit: 4; fill: url(#SVGID_10); fill-rule: nonzero; opacity: 1;" vector-effect="non-scaling-stroke"  transform=" translate(-87.3, -63.95)" d="M 90.2 65.4 L 90.2 65.4 L 90.2 65.4 L 89.4 66.10000000000001 C 89 66.4 88.5 66.50000000000001 88.10000000000001 66.30000000000001 C 87.50000000000001 66.10000000000001 86.9 65.70000000000002 86.4 65.4 C 86.4 65.4 86.4 65.4 86.4 65.4 C 86.30000000000001 65.30000000000001 86.30000000000001 65.30000000000001 86.2 65.30000000000001 C 86.2 65.30000000000001 86.2 65.30000000000001 86.2 65.30000000000001 C 86.10000000000001 65.30000000000001 86.10000000000001 65.20000000000002 86 65.20000000000002 C 85.8 65.00000000000001 85.6 64.90000000000002 85.4 64.70000000000002 C 85.4 64.70000000000002 85.4 64.70000000000002 85.4 64.70000000000002 C 85.2 64.40000000000002 84.9 64.20000000000002 84.7 63.90000000000002 C 84.7 63.90000000000002 84.60000000000001 63.80000000000002 84.60000000000001 63.80000000000002 C 84.50000000000001 63.600000000000016 84.4 63.40000000000002 84.4 63.100000000000016 C 84.4 62.90000000000001 84.4 62.70000000000002 84.5 62.500000000000014 L 84.8 61.90000000000001 L 84.89999999999999 61.70000000000001 L 84.89999999999999 61.60000000000001 L 84.89999999999999 61.50000000000001 L 84.89999999999999 61.50000000000001 L 86.6 62.800000000000004 C 86.6 62.800000000000004 86.6 62.800000000000004 86.6 62.800000000000004 L 86.69999999999999 62.900000000000006 L 86.99999999999999 63.10000000000001 C 86.99999999999999 63.10000000000001 86.99999999999999 63.10000000000001 86.99999999999999 63.10000000000001 L 87.49999999999999 63.50000000000001 L 88.49999999999999 64.2 L 89.79999999999998 65.2 L 89.89999999999998 65.3 L 90.2 65.4 z" stroke-linecap="round" />
</g>
<g transform="matrix(1 0 0 1 135.4 205.19)" id="Em6DUqlyiL5wJv3dBm26C"  >
<path style="stroke: none; stroke-width: 1; stroke-dasharray: none; stroke-linecap: butt; stroke-dashoffset: 0; stroke-linejoin: miter; stroke-miterlimit: 4; fill: rgb(255,255,255); fill-rule: nonzero; opacity: 0.6;" vector-effect="non-scaling-stroke"  transform=" translate(-85.05, -63.15)" d="M 85.4 61.8 L 85 62.8 C 84.9 63 84.8 63.3 84.9 63.599999999999994 C 84.9 63.89999999999999 85 64.1 85.2 64.3 C 85.3 64.5 85.5 64.6 85.60000000000001 64.8 C 85.30000000000001 64.5 85.00000000000001 64.2 84.80000000000001 63.9 C 84.70000000000002 63.699999999999996 84.60000000000001 63.5 84.50000000000001 63.199999999999996 C 84.50000000000001 62.99999999999999 84.50000000000001 62.699999999999996 84.60000000000001 62.49999999999999 L 85.10000000000001 61.49999999999999 L 85.4 61.8 z" stroke-linecap="round" />
</g>
<g transform="matrix(1 0 0 1 137.7 205.69)" id="oC29XhBd8QVl75XtpQJcT"  >
<path style="stroke: none; stroke-width: 1; stroke-dasharray: none; stroke-linecap: butt; stroke-dashoffset: 0; stroke-linejoin: miter; stroke-miterlimit: 4; fill: rgb(57,0,117); fill-rule: nonzero; opacity: 0.35;" vector-effect="non-scaling-stroke"  transform=" translate(-87.35, -63.65)" d="M 88.4 64 L 87.4 63.3 L 87.4 63.3 L 87 62.9 L 86.7 62.699999999999996 L 86.60000000000001 62.599999999999994 C 86.60000000000001 62.599999999999994 86.60000000000001 62.599999999999994 86.60000000000001 62.599999999999994 L 84.9 61.3 L 84.9 61.4 L 84.9 61.4 C 84.9 61.4 84.9 61.4 85 61.5 C 85 61.6 85.1 61.6 85.1 61.6 C 85.1 61.6 85.1 61.6 85.1 61.6 L 85.1 61.6 L 85.39999999999999 61.9 L 86.49999999999999 62.8 L 86.59999999999998 62.9 L 86.89999999999998 63.1 L 87.39999999999998 63.5 L 87.99999999999997 64 L 87.89999999999998 64 L 88.19999999999997 64.3 L 88.29999999999997 64.39999999999999 L 87.99999999999997 64.6 L 87.89999999999998 64.6 L 87.6 65 C 87.3 65.3 86.89999999999999 65.4 86.5 65.3 C 86.5 65.3 86.5 65.3 86.5 65.3 C 86.5 65.3 86.4 65.3 86.4 65.3 C 86.4 65.3 86.4 65.3 86.5 65.3 C 86.9 65.5 87.3 65.7 87.7 65.89999999999999 C 88.10000000000001 66.1 88.7 65.99999999999999 89 65.69999999999999 L 89.6 65.19999999999999 L 89.6 65.19999999999999 L 89.8 65.1 L 88.4 64 z" stroke-linecap="round" />
</g>
<g transform="matrix(1 0 0 1 133.9 201.97)" id="TztntIaWusKB1hNkU5BM2"  >
<path style="stroke: none; stroke-width: 1; stroke-dasharray: none; stroke-linecap: butt; stroke-dashoffset: 0; stroke-linejoin: miter; stroke-miterlimit: 4; fill: rgb(236,28,36); fill-rule: nonzero; opacity: 1;" vector-effect="non-scaling-stroke"  transform=" translate(-83.55, -59.93)" d="M 86.3 58.6 L 85.6 61.5 C 85.39999999999999 61.3 85.1 61.2 84.8 61.1 C 84.8 61.1 84.8 61.1 84.7 61.1 C 84.7 61.1 84.60000000000001 61.1 84.60000000000001 61.1 C 83.50000000000001 60.9 82.10000000000001 61.4 81.30000000000001 61.6 C 81.10000000000001 61.7 81.00000000000001 61.7 80.9 61.7 C 80.80000000000001 61.7 80.80000000000001 61.7 80.80000000000001 61.6 C 82.30000000000001 58.6 84.00000000000001 58 85.20000000000002 58.2 C 85.7 58.3 86 58.4 86.3 58.6 C 86.2 58.5 86.3 58.6 86.3 58.6 z" stroke-linecap="round" />
</g>
<g transform="matrix(1 0 0 1 133.85 201.97)" id="847SrBHLrpMRkf9ctunsg"  >
<path style="stroke: none; stroke-width: 1; stroke-dasharray: none; stroke-linecap: butt; stroke-dashoffset: 0; stroke-linejoin: miter; stroke-miterlimit: 4; fill: rgb(255,255,255); fill-rule: nonzero; opacity: 0.6;" vector-effect="non-scaling-stroke"  transform=" translate(-83.5, -59.93)" d="M 86.2 58.5 C 84.9 58.2 83 58.7 81.3 61.6 C 81.1 61.7 81 61.7 80.89999999999999 61.7 C 80.8 61.7 80.8 61.7 80.8 61.6 C 82.8 57.7 85.2 57.9 86.2 58.5 z" stroke-linecap="round" />
</g>
<g transform="matrix(1 0 0 1 141.87 208.29)" id="vngelSGMcRT383ix6TZU5"  >
<path style="stroke: none; stroke-width: 1; stroke-dasharray: none; stroke-linecap: butt; stroke-dashoffset: 0; stroke-linejoin: miter; stroke-miterlimit: 4; fill: rgb(210,86,88); fill-rule: nonzero; opacity: 1;" vector-effect="non-scaling-stroke"  transform=" translate(-91.52, -66.25)" d="M 92.4 63.2 C 93.30000000000001 64 94.2 66.3 90.9 69.3 C 90.9 69.3 90.80000000000001 69.3 90.80000000000001 69.2 C 90.9 68.60000000000001 91.10000000000001 65.60000000000001 89.80000000000001 64.60000000000001 L 92.4 63.2 z" stroke-linecap="round" />
</g>
<g transform="matrix(1 0 0 1 141.88 208.34)" id="1a36s5Cn8V4Bv1UBrSG0g"  >
<path style="stroke: none; stroke-width: 1; stroke-dasharray: none; stroke-linecap: butt; stroke-dashoffset: 0; stroke-linejoin: miter; stroke-miterlimit: 4; fill: rgb(236,28,36); fill-rule: nonzero; opacity: 1;" vector-effect="non-scaling-stroke"  transform=" translate(-91.53, -66.3)" d="M 90.9 69.3 C 90.9 69.3 90.80000000000001 69.3 90.80000000000001 69.2 C 90.80000000000001 68.9 90.9 67.9 90.80000000000001 67 C 90.70000000000002 66.1 90.4 65.1 89.80000000000001 64.7 C 89.80000000000001 64.7 89.80000000000001 64.7 89.80000000000001 64.7 L 89.80000000000001 64.7 L 92.4 63.300000000000004 C 92.7 63.50000000000001 92.9 63.900000000000006 93.10000000000001 64.30000000000001 C 93.5 65.4 93.3 67.1 90.9 69.3 z" stroke-linecap="round" />
</g>
<g transform="matrix(1 0 0 1 141.8 207.19)" id="dxIS1_f_nASkatmMAzRCs"  >
<path style="stroke: none; stroke-width: 1; stroke-dasharray: none; stroke-linecap: butt; stroke-dashoffset: 0; stroke-linejoin: miter; stroke-miterlimit: 4; fill: rgb(57,0,117); fill-rule: nonzero; opacity: 0.35;" vector-effect="non-scaling-stroke"  transform=" translate(-91.45, -65.15)" d="M 90.8 67 C 90.7 66.1 90.39999999999999 65.1 89.8 64.7 C 89.8 64.7 89.8 64.7 89.8 64.7 L 92.39999999999999 63.300000000000004 C 92.69999999999999 63.50000000000001 92.89999999999999 63.900000000000006 93.1 64.30000000000001 C 92.8 65.1 92.1 66.1 90.8 67 z" stroke-linecap="round" />
</g>
<g transform="matrix(1 0 0 1 143.91 197.24)" id="mtOJJuV7JiDeAJL3tKljU"  >
<path style="stroke: none; stroke-width: 1; stroke-dasharray: none; stroke-linecap: butt; stroke-dashoffset: 0; stroke-linejoin: miter; stroke-miterlimit: 4; fill: rgb(255,255,255); fill-rule: nonzero; opacity: 1;" vector-effect="non-scaling-stroke"  transform=" translate(-93.56, -55.2)" d="M 101.7 52.6 C 101.2 54.2 100.5 56.1 99.2 58 C 97.10000000000001 61.3 94.7 63.1 93 64.2 C 93 64.2 93 64.2 93 64.2 C 91.8 64.9 90.8 65.3 90.4 65.4 C 90.4 65.4 90.4 65.4 90.4 65.4 L 90.4 65.4 C 90.30000000000001 65.4 90.2 65.5 90.2 65.5 L 90.2 65.5 C 90.2 65.5 90.2 65.5 90.2 65.5 C 90 65.4 89.8 65.4 89.60000000000001 65.3 C 89.4 65.2 89.2 65.2 89.00000000000001 65.1 C 89.00000000000001 65.1 89.00000000000001 65.1 88.90000000000002 65.1 C 88.90000000000002 65.1 88.90000000000002 65.1 88.90000000000002 65.1 C 88.60000000000002 65 88.40000000000002 64.8 88.10000000000002 64.69999999999999 C 88.10000000000002 64.69999999999999 88.00000000000003 64.6 88.00000000000003 64.6 C 87.70000000000003 64.39999999999999 87.40000000000003 64.19999999999999 87.10000000000002 63.99999999999999 C 87.00000000000003 63.89999999999999 86.80000000000003 63.79999999999999 86.70000000000002 63.699999999999996 C 86.60000000000002 63.599999999999994 86.50000000000001 63.599999999999994 86.40000000000002 63.49999999999999 C 86.30000000000003 63.49999999999999 86.30000000000003 63.39999999999999 86.30000000000003 63.39999999999999 C 85.90000000000002 62.99999999999999 85.60000000000002 62.69999999999999 85.30000000000003 62.29999999999999 C 85.20000000000003 62.19999999999999 85.10000000000002 61.99999999999999 85.00000000000003 61.89999999999999 L 85.00000000000003 61.89999999999999 C 85.00000000000003 61.89999999999999 85.00000000000003 61.89999999999999 85.00000000000003 61.89999999999999 C 85.00000000000003 61.89999999999999 85.00000000000003 61.89999999999999 84.90000000000003 61.79999999999999 C 84.90000000000003 61.79999999999999 84.90000000000003 61.79999999999999 84.80000000000004 61.69999999999999 C 84.80000000000004 61.69999999999999 84.80000000000004 61.69999999999999 84.80000000000004 61.69999999999999 C 84.80000000000004 61.69999999999999 84.80000000000004 61.69999999999999 84.80000000000004 61.69999999999999 L 84.80000000000004 61.39999999999999 C 84.80000000000004 61.29999999999999 84.80000000000004 61.19999999999999 84.80000000000004 61.099999999999994 C 84.80000000000004 60.599999999999994 84.90000000000003 59.8 85.20000000000005 58.8 C 85.20000000000005 58.699999999999996 85.20000000000005 58.599999999999994 85.30000000000004 58.5 C 85.50000000000004 57.8 85.70000000000005 57 86.10000000000004 56.2 C 86.20000000000003 56.1 86.20000000000003 56 86.30000000000004 55.900000000000006 C 86.90000000000003 54.7 87.70000000000005 53.300000000000004 88.80000000000004 51.900000000000006 C 89.10000000000004 51.60000000000001 89.30000000000004 51.2 89.60000000000004 50.900000000000006 C 89.60000000000004 50.900000000000006 89.60000000000004 50.900000000000006 89.60000000000004 50.900000000000006 C 90.80000000000004 49.50000000000001 92.00000000000004 48.50000000000001 93.20000000000003 47.7 C 93.20000000000003 47.7 93.30000000000003 47.6 93.30000000000003 47.6 C 93.40000000000002 47.5 93.50000000000003 47.4 93.60000000000002 47.4 C 93.70000000000002 47.3 93.90000000000002 47.199999999999996 94.00000000000003 47.1 C 94.10000000000002 47 94.30000000000003 46.9 94.40000000000003 46.800000000000004 C 94.60000000000004 46.7 94.70000000000003 46.6 94.90000000000003 46.50000000000001 C 95.20000000000003 46.400000000000006 95.50000000000003 46.20000000000001 95.70000000000003 46.10000000000001 C 95.80000000000003 46.00000000000001 96.00000000000003 46.00000000000001 96.10000000000004 45.900000000000006 C 96.30000000000004 45.800000000000004 96.50000000000004 45.7 96.70000000000003 45.7 C 96.90000000000003 45.6 97.10000000000004 45.6 97.20000000000003 45.5 C 98.80000000000003 45 100.00000000000003 44.9 100.80000000000003 44.9 C 100.90000000000002 44.9 101.00000000000003 44.9 101.00000000000003 44.9 C 101.10000000000002 44.9 101.20000000000003 44.9 101.30000000000003 44.9 C 101.40000000000002 44.9 101.50000000000003 44.9 101.60000000000002 44.9 C 101.60000000000002 44.9 101.60000000000002 44.9 101.60000000000002 44.9 C 101.60000000000002 44.9 101.70000000000002 45 101.70000000000002 45.199999999999996 C 102.2 45.9 102.8 48.7 101.7 52.6 z" stroke-linecap="round" />
</g>
<g transform="matrix(1 0 0 1 148.6 190.54)" id="cI-E_Ex2JiwjY0CCAipG6"  >
<path style="stroke: none; stroke-width: 1; stroke-dasharray: none; stroke-linecap: butt; stroke-dashoffset: 0; stroke-linejoin: miter; stroke-miterlimit: 4; fill: rgb(236,28,36); fill-rule: nonzero; opacity: 1;" vector-effect="non-scaling-stroke"  transform=" translate(-98.25, -48.5)" d="M 101.8 52.6 C 101.8 52.6 101.8 52.6 101.8 52.6 C 101.7 52.5 101.6 52.300000000000004 101.5 52.2 C 101.2 51.800000000000004 100.8 51.400000000000006 100.4 51.1 C 98.7 49.5 96.80000000000001 48.1 94.60000000000001 47 C 94.4 46.9 94.30000000000001 46.8 94.10000000000001 46.7 C 94.2 46.6 94.4 46.5 94.50000000000001 46.400000000000006 C 94.70000000000002 46.300000000000004 94.80000000000001 46.2 95.00000000000001 46.10000000000001 C 95.30000000000001 46.00000000000001 95.60000000000001 45.80000000000001 95.80000000000001 45.70000000000001 C 95.9 45.60000000000001 96.10000000000001 45.60000000000001 96.20000000000002 45.50000000000001 C 96.40000000000002 45.400000000000006 96.60000000000002 45.300000000000004 96.80000000000001 45.300000000000004 C 97.00000000000001 45.2 97.20000000000002 45.2 97.30000000000001 45.1 C 99.00000000000001 44.5 100.4 44.4 101.10000000000001 44.4 C 101.4 44.4 101.50000000000001 44.4 101.7 44.4 C 101.8 44.4 101.8 44.4 101.8 44.4 C 101.8 44.4 101.89999999999999 44.5 101.89999999999999 44.8 C 102.2 46 102.9 48.8 101.8 52.6 z" stroke-linecap="round" />
</g>
<g transform="matrix(1 0 0 1 143.8 197.04)" id="y1vYLiLKFTPt71t-u_dHu"  >
<linearGradient id="SVGID_11" gradientUnits="userSpaceOnUse" gradientTransform="matrix(1 0 0 1 0 0)"  x1="84.7192" y1="54.8619" x2="102.1079" y2="54.8619">
<stop offset="0%" style="stop-color:rgb(255,193,163);stop-opacity: 1"/>
<stop offset="100%" style="stop-color:rgb(255,177,187);stop-opacity: 1"/>
</linearGradient>
<path style="stroke: none; stroke-width: 1; stroke-dasharray: none; stroke-linecap: butt; stroke-dashoffset: 0; stroke-linejoin: miter; stroke-miterlimit: 4; fill: url(#SVGID_11); fill-rule: nonzero; opacity: 0.44;" vector-effect="non-scaling-stroke"  transform=" translate(-93.45, -55)" d="M 101.4 52.2 C 100.9 53.800000000000004 100.10000000000001 55.6 98.9 57.5 C 96.80000000000001 60.7 94.60000000000001 62.6 92.80000000000001 63.7 C 92.80000000000001 63.7 92.80000000000001 63.7 92.80000000000001 63.7 C 91.70000000000002 64.4 90.70000000000002 64.8 90.20000000000002 65 C 90.20000000000002 65 90.20000000000002 65 90.20000000000002 65 C 90.10000000000002 65 90.00000000000001 65.1 89.90000000000002 65.1 C 89.70000000000002 65.19999999999999 89.60000000000002 65.19999999999999 89.60000000000002 65.19999999999999 C 89.60000000000002 65.19999999999999 89.60000000000002 65.19999999999999 89.60000000000002 65.19999999999999 C 89.40000000000002 65.1 89.20000000000002 65.1 89.00000000000003 64.99999999999999 C 89.00000000000003 64.99999999999999 89.00000000000003 64.99999999999999 88.90000000000003 64.99999999999999 C 88.90000000000003 64.99999999999999 88.90000000000003 64.99999999999999 88.90000000000003 64.99999999999999 C 88.60000000000004 64.89999999999999 88.30000000000004 64.79999999999998 88.10000000000004 64.59999999999998 C 88.00000000000004 64.59999999999998 88.00000000000004 64.49999999999999 87.90000000000003 64.49999999999999 C 87.60000000000004 64.29999999999998 87.30000000000004 64.19999999999999 87.00000000000003 63.999999999999986 C 86.90000000000003 63.899999999999984 86.70000000000003 63.79999999999998 86.60000000000002 63.69999999999999 C 86.50000000000003 63.59999999999999 86.40000000000002 63.59999999999999 86.30000000000003 63.499999999999986 C 86.20000000000003 63.499999999999986 86.20000000000003 63.399999999999984 86.20000000000003 63.399999999999984 C 86.10000000000004 63.29999999999998 86.00000000000003 63.29999999999998 85.90000000000003 63.19999999999998 C 85.60000000000004 62.899999999999984 85.30000000000004 62.59999999999998 85.10000000000004 62.29999999999998 C 85.00000000000004 62.19999999999998 84.90000000000003 61.999999999999986 84.80000000000004 61.79999999999998 C 84.80000000000004 61.79999999999998 84.70000000000005 61.69999999999998 84.70000000000005 61.69999999999998 L 84.80000000000004 61.49999999999998 L 84.80000000000004 61.39999999999998 C 84.80000000000004 61.39999999999998 84.80000000000004 61.39999999999998 84.80000000000004 61.39999999999998 C 84.80000000000004 61.39999999999998 84.80000000000004 61.39999999999998 84.80000000000004 61.39999999999998 L 84.80000000000004 61.199999999999974 C 84.80000000000004 61.199999999999974 84.90000000000003 61.299999999999976 84.90000000000003 61.299999999999976 C 84.90000000000003 61.299999999999976 84.90000000000003 61.299999999999976 84.90000000000003 61.299999999999976 C 85.40000000000003 61.799999999999976 86.00000000000003 62.09999999999997 86.70000000000003 62.39999999999998 C 86.80000000000003 62.39999999999998 86.80000000000003 62.49999999999998 86.90000000000003 62.49999999999998 C 87.00000000000003 62.59999999999998 87.10000000000004 62.59999999999998 87.30000000000004 62.59999999999998 C 87.50000000000004 62.69999999999998 87.80000000000004 62.69999999999998 88.00000000000004 62.79999999999998 C 88.40000000000005 62.899999999999984 88.80000000000004 62.899999999999984 89.20000000000005 62.899999999999984 C 90.20000000000005 62.899999999999984 91.20000000000005 62.499999999999986 92.10000000000005 61.999999999999986 C 93.70000000000005 60.899999999999984 95.80000000000005 59.19999999999999 97.70000000000005 56.399999999999984 C 96.50000000000004 57.399999999999984 94.70000000000005 57.499999999999986 93.40000000000005 56.499999999999986 C 92.50000000000004 55.79999999999998 92.00000000000004 54.79999999999998 92.00000000000004 53.69999999999999 L 92.00000000000004 53.69999999999999 C 92.00000000000004 52.999999999999986 92.30000000000004 52.19999999999999 92.70000000000005 51.59999999999999 C 92.70000000000005 51.59999999999999 92.70000000000005 51.59999999999999 92.80000000000004 51.499999999999986 C 92.80000000000004 51.499999999999986 92.80000000000004 51.399999999999984 92.90000000000003 51.399999999999984 C 93.10000000000004 51.19999999999998 93.20000000000003 50.999999999999986 93.40000000000003 50.899999999999984 C 93.60000000000004 50.79999999999998 93.80000000000004 50.59999999999999 94.00000000000003 50.499999999999986 C 94.10000000000002 50.499999999999986 94.10000000000002 50.499999999999986 94.10000000000002 50.399999999999984 C 94.20000000000002 50.399999999999984 94.20000000000002 50.29999999999998 94.30000000000003 50.29999999999998 C 94.30000000000003 50.29999999999998 94.30000000000003 50.29999999999998 94.40000000000002 50.29999999999998 C 94.40000000000002 50.29999999999998 94.50000000000001 50.29999999999998 94.50000000000001 50.29999999999998 C 94.50000000000001 50.29999999999998 94.50000000000001 50.29999999999998 94.60000000000001 50.29999999999998 C 94.60000000000001 50.29999999999998 94.60000000000001 50.29999999999998 94.7 50.29999999999998 C 94.7 50.29999999999998 94.8 50.29999999999998 94.8 50.29999999999998 C 94.89999999999999 50.29999999999998 95.1 50.19999999999998 95.3 50.19999999999998 C 95.39999999999999 50.19999999999998 95.5 50.19999999999998 95.6 50.19999999999998 C 96.3 50.19999999999998 97 50.29999999999998 97.69999999999999 50.69999999999998 C 97.79999999999998 50.79999999999998 97.89999999999999 50.79999999999998 97.89999999999999 50.899999999999984 C 98.99999999999999 51.79999999999998 99.49999999999999 53.19999999999998 99.19999999999999 54.499999999999986 C 99.79999999999998 53.399999999999984 100.29999999999998 52.29999999999998 100.69999999999999 51.29999999999998 C 101.49999999999999 48.79999999999998 101.6 46.69999999999998 101.49999999999999 45.19999999999998 C 101.49999999999999 45.09999999999998 101.49999999999999 44.899999999999984 101.49999999999999 44.79999999999998 C 101.49999999999999 44.79999999999998 101.49999999999999 44.79999999999998 101.49999999999999 44.79999999999998 C 101.79999999999998 44.79999999999998 101.89999999999999 44.79999999999998 102.09999999999998 44.79999999999998 C 102.09999999999998 44.79999999999998 102.09999999999998 44.79999999999998 102.09999999999998 44.899999999999984 C 102.09999999999998 44.999999999999986 102.19999999999997 45.09999999999999 102.19999999999997 45.19999999999998 C 102.1 46.3 102.4 48.9 101.4 52.2 z" stroke-linecap="round" />
</g>
<g transform="matrix(1 0 0 1 135.05 202.74)" id="go-aotIwOUqze8ASlWXo4"  >
<path style="stroke: none; stroke-width: 1; stroke-dasharray: none; stroke-linecap: butt; stroke-dashoffset: 0; stroke-linejoin: miter; stroke-miterlimit: 4; fill: rgb(57,0,117); fill-rule: nonzero; opacity: 0.35;" vector-effect="non-scaling-stroke"  transform=" translate(-84.7, -60.7)" d="M 84.7 60.7 L 84.7 60.7 C 84.7 60.7 84.7 60.7 84.7 60.7 C 84.7 60.7 84.7 60.7 84.7 60.7 z" stroke-linecap="round" />
</g>
<g transform="matrix(1 0 0 1 135.05 202.74)" id="pDtRF-GmRWp0BSAB3W6J9"  >
<path style="stroke: none; stroke-width: 1; stroke-dasharray: none; stroke-linecap: butt; stroke-dashoffset: 0; stroke-linejoin: miter; stroke-miterlimit: 4; fill: rgb(57,0,117); fill-rule: nonzero; opacity: 0.35;" vector-effect="non-scaling-stroke"  transform=" translate(-84.7, -60.7)" d="M 84.7 60.7 L 84.7 60.7 z" stroke-linecap="round" />
</g>
<g transform="matrix(1 0 0 1 148.2 187.84)" id="RLDWzGEhJCjYuEUhhpFCD"  >
<path style="stroke: none; stroke-width: 1; stroke-dasharray: none; stroke-linecap: butt; stroke-dashoffset: 0; stroke-linejoin: miter; stroke-miterlimit: 4; fill: rgb(255,255,255); fill-rule: nonzero; opacity: 0.6;" vector-effect="non-scaling-stroke"  transform=" translate(-97.85, -45.8)" d="M 102 44.9 L 101.9 44.9 C 101.7 44.9 101.5 44.9 101.30000000000001 44.9 C 99.9 45 97.4 45.4 94.70000000000002 46.9 C 94.50000000000001 47 94.40000000000002 47.1 94.20000000000002 47.199999999999996 C 94.00000000000001 47.099999999999994 93.90000000000002 46.99999999999999 93.70000000000002 46.99999999999999 C 93.80000000000001 46.89999999999999 94.00000000000001 46.79999999999999 94.10000000000002 46.699999999999996 C 94.20000000000002 46.599999999999994 94.40000000000002 46.49999999999999 94.50000000000003 46.4 C 94.70000000000003 46.3 94.80000000000003 46.199999999999996 95.00000000000003 46.1 C 95.30000000000003 46 95.60000000000002 45.800000000000004 95.80000000000003 45.7 C 95.90000000000002 45.6 96.10000000000002 45.6 96.20000000000003 45.5 C 96.40000000000003 45.4 96.60000000000004 45.3 96.80000000000003 45.3 C 97.00000000000003 45.199999999999996 97.20000000000003 45.199999999999996 97.30000000000003 45.099999999999994 C 99.00000000000003 44.49999999999999 100.40000000000002 44.39999999999999 101.10000000000002 44.39999999999999 C 101.40000000000002 44.39999999999999 101.50000000000003 44.39999999999999 101.70000000000002 44.39999999999999 C 101.80000000000001 44.39999999999999 101.80000000000001 44.39999999999999 101.80000000000001 44.39999999999999 C 101.80000000000001 44.39999999999999 101.9 44.7 102 44.9 z" stroke-linecap="round" />
</g>
<g transform="matrix(1 0 0 1 145.65 195.2)" id="q4RD93yKh7MsaoyKZBi9m"  >
<path style="stroke: none; stroke-width: 1; stroke-dasharray: none; stroke-linecap: butt; stroke-dashoffset: 0; stroke-linejoin: miter; stroke-miterlimit: 4; fill: rgb(236,28,36); fill-rule: nonzero; opacity: 1;" vector-effect="non-scaling-stroke"  transform=" translate(-3.1, -3.1)" d="M 0 3.1 C 0 1.38792 1.38792 0 3.1 0 C 4.81208 0 6.2 1.38792 6.2 3.1 C 6.2 4.81208 4.81208 6.2 3.1 6.2 C 1.38792 6.2 0 4.81208 0 3.1 z" stroke-linecap="round" />
</g>
<g transform="matrix(1 0 0 1 145.6 195.19)" id="fGnjYRbRSTfUu_9gG9u7Z"  >
<path style="stroke: none; stroke-width: 1; stroke-dasharray: none; stroke-linecap: butt; stroke-dashoffset: 0; stroke-linejoin: miter; stroke-miterlimit: 4; fill: rgb(57,0,117); fill-rule: nonzero; opacity: 1;" vector-effect="non-scaling-stroke"  transform=" translate(-95.25, -53.15)" d="M 98.4 52.8 C 98.4 52.699999999999996 98.4 52.599999999999994 98.30000000000001 52.5 C 98.30000000000001 52.4 98.30000000000001 52.3 98.20000000000002 52.3 C 98.10000000000002 51.9 97.90000000000002 51.599999999999994 97.60000000000002 51.3 L 97.60000000000002 51.3 C 97.60000000000002 51.3 97.60000000000002 51.3 97.60000000000002 51.3 C 97.50000000000003 51.099999999999994 97.30000000000003 51 97.10000000000002 50.8 C 96.6 50.3 96 50 95.3 50 C 95.2 50 95.1 50 95 50 C 94.9 50 94.9 50 94.8 50 C 94 50.1 93.2 50.5 92.7 51.2 C 92.7 51.2 92.7 51.300000000000004 92.60000000000001 51.300000000000004 C 92.10000000000001 52.00000000000001 91.9 52.800000000000004 92.00000000000001 53.6 C 92.00000000000001 53.9 92.10000000000001 54.2 92.20000000000002 54.4 C 92.20000000000002 54.4 92.20000000000002 54.4 92.20000000000002 54.4 C 92.20000000000002 54.4 92.20000000000002 54.4 92.20000000000002 54.4 C 92.30000000000001 54.5 92.30000000000001 54.6 92.40000000000002 54.699999999999996 C 92.50000000000001 54.8 92.60000000000002 54.99999999999999 92.70000000000002 55.099999999999994 C 92.80000000000001 55.199999999999996 92.80000000000001 55.3 92.90000000000002 55.39999999999999 C 93.00000000000001 55.49999999999999 93.10000000000002 55.599999999999994 93.20000000000002 55.69999999999999 C 93.20000000000002 55.69999999999999 93.20000000000002 55.69999999999999 93.20000000000002 55.69999999999999 C 93.80000000000001 56.09999999999999 94.40000000000002 56.29999999999999 95.10000000000002 56.29999999999999 C 96.00000000000003 56.29999999999999 97.00000000000003 55.89999999999999 97.60000000000002 55.09999999999999 C 98.00000000000003 54.499999999999986 98.20000000000002 53.79999999999999 98.20000000000002 53.19999999999999 C 98.4 53 98.4 52.9 98.4 52.8 z M 93.5 55.6 C 93.4 55.6 93.4 55.6 93.5 55.6 C 93.4 55.5 93.2 55.4 93.2 55.300000000000004 C 93.2 55.300000000000004 93.2 55.300000000000004 93.2 55.300000000000004 C 93 55.1 92.9 54.900000000000006 92.8 54.7 C 92.8 54.6 92.7 54.6 92.7 54.5 C 92.7 54.5 92.7 54.5 92.7 54.5 C 92.7 54.5 92.7 54.4 92.60000000000001 54.4 L 92.60000000000001 54.4 C 92.50000000000001 54.1 92.4 53.9 92.4 53.6 C 92.30000000000001 52.800000000000004 92.5 52 93 51.300000000000004 C 93.5 50.7 94.2 50.2 95 50.1 C 95.5 50 96 50.1 96.5 50.300000000000004 C 96.6 50.400000000000006 96.8 50.400000000000006 96.9 50.50000000000001 C 96.9 50.50000000000001 97 50.50000000000001 97 50.50000000000001 C 97 50.50000000000001 97.1 50.50000000000001 97.1 50.60000000000001 C 97.19999999999999 50.60000000000001 97.19999999999999 50.70000000000001 97.3 50.70000000000001 C 97.3 50.70000000000001 97.3 50.70000000000001 97.3 50.70000000000001 C 97.39999999999999 50.80000000000001 97.5 50.90000000000001 97.6 51.00000000000001 C 97.6 51.00000000000001 97.6 51.00000000000001 97.6 51.00000000000001 C 97.69999999999999 51.10000000000001 97.69999999999999 51.10000000000001 97.8 51.20000000000001 C 97.8 51.20000000000001 97.8 51.20000000000001 97.8 51.20000000000001 C 97.8 51.20000000000001 97.89999999999999 51.30000000000001 97.89999999999999 51.30000000000001 C 97.89999999999999 51.40000000000001 97.99999999999999 51.40000000000001 97.99999999999999 51.500000000000014 C 98.19999999999999 51.80000000000001 98.29999999999998 52.000000000000014 98.39999999999999 52.30000000000001 C 98.39999999999999 52.40000000000001 98.49999999999999 52.500000000000014 98.49999999999999 52.70000000000001 C 98.59999999999998 53.50000000000001 98.39999999999999 54.30000000000001 97.89999999999999 55.00000000000001 C 96.7 56.4 94.8 56.6 93.5 55.6 z" stroke-linecap="round" />
</g>
<g transform="matrix(1 0 0 1 145.38 194.92)" id="MaeiB8kXJa7NJ1tgY2v9O"  >
<path style="stroke: none; stroke-width: 1; stroke-dasharray: none; stroke-linecap: butt; stroke-dashoffset: 0; stroke-linejoin: miter; stroke-miterlimit: 4; fill: rgb(255,255,255); fill-rule: nonzero; opacity: 0.6;" vector-effect="non-scaling-stroke"  transform=" translate(-95.03, -52.89)" d="M 97.7 51.2 C 97.60000000000001 51.2 97.60000000000001 51.1 97.5 51.1 C 96.1 50.1 94.2 50.300000000000004 93.2 51.7 C 92.3 52.900000000000006 92.4 54.6 93.4 55.6 C 92.2 54.5 92 52.7 93 51.4 C 94 50 96 49.8 97.3 50.8 C 97.4 51 97.6 51.1 97.7 51.2 z" stroke-linecap="round" />
</g>
<g transform="matrix(1 0 0 1 145.71 195.85)" id="t3_v2pWOiLLhY-gW1JAaH"  >
<path style="stroke: none; stroke-width: 1; stroke-dasharray: none; stroke-linecap: butt; stroke-dashoffset: 0; stroke-linejoin: miter; stroke-miterlimit: 4; fill: rgb(55,26,69); fill-rule: nonzero; opacity: 0.35;" vector-effect="non-scaling-stroke"  transform=" translate(-95.36, -53.81)" d="M 97.7 55.1 C 96.7 56.5 94.7 56.7 93.4 55.7 C 93 55.400000000000006 92.7 55 92.4 54.5 C 92.5 54.7 92.7 54.8 92.9 55 C 94.30000000000001 56 96.2 55.8 97.2 54.4 C 97.9 53.5 98 52.3 97.60000000000001 51.3 C 98.5 52.3 98.6 53.9 97.7 55.1 z" stroke-linecap="round" />
</g>
<g transform="matrix(1 0 0 1 145.85 195.89)" id="JHMBSOhBy_FaRa5ELBfQ8"  >
<path style="stroke: none; stroke-width: 1; stroke-dasharray: none; stroke-linecap: butt; stroke-dashoffset: 0; stroke-linejoin: miter; stroke-miterlimit: 4; fill: rgb(57,0,117); fill-rule: nonzero; opacity: 0.35;" vector-effect="non-scaling-stroke"  transform=" translate(-95.5, -53.85)" d="M 98.4 52.8 C 98.4 52.699999999999996 98.4 52.599999999999994 98.30000000000001 52.5 C 98.30000000000001 52.4 98.30000000000001 52.3 98.20000000000002 52.3 C 98.10000000000002 51.9 97.90000000000002 51.599999999999994 97.60000000000002 51.3 L 97.60000000000002 51.3 C 97.60000000000002 51.3 97.60000000000002 51.3 97.60000000000002 51.3 C 97.60000000000002 51.3 97.60000000000002 51.3 97.60000000000002 51.3 L 97.60000000000002 51.3 L 97.60000000000002 51.3 C 97.60000000000002 51.3 97.60000000000002 51.3 97.60000000000002 51.3 C 97.60000000000002 51.3 97.60000000000002 51.3 97.60000000000002 51.3 C 97.70000000000002 51.5 97.80000000000003 51.699999999999996 97.80000000000003 52 C 98.00000000000003 52.8 97.80000000000003 53.7 97.20000000000003 54.4 C 96.70000000000003 55 96.00000000000003 55.5 95.20000000000003 55.6 C 94.40000000000003 55.7 93.60000000000004 55.5 93.00000000000003 55 C 93.00000000000003 55 93.00000000000003 55 93.00000000000003 55 C 92.90000000000003 54.9 92.90000000000003 54.9 92.80000000000003 54.8 C 92.70000000000003 54.699999999999996 92.60000000000002 54.599999999999994 92.50000000000003 54.5 C 92.50000000000003 54.5 92.50000000000003 54.5 92.50000000000003 54.5 L 92.50000000000003 54.5 C 92.50000000000003 54.5 92.50000000000003 54.5 92.50000000000003 54.5 C 92.50000000000003 54.5 92.50000000000003 54.5 92.50000000000003 54.5 C 92.50000000000003 54.5 92.50000000000003 54.5 92.50000000000003 54.5 C 92.50000000000003 54.5 92.50000000000003 54.5 92.50000000000003 54.5 C 92.50000000000003 54.5 92.50000000000003 54.5 92.50000000000003 54.5 C 92.60000000000002 54.6 92.60000000000002 54.7 92.70000000000003 54.8 C 92.80000000000003 54.9 92.90000000000003 55.099999999999994 93.00000000000003 55.199999999999996 C 93.10000000000002 55.3 93.10000000000002 55.4 93.20000000000003 55.49999999999999 C 93.30000000000003 55.599999999999994 93.40000000000003 55.699999999999996 93.50000000000003 55.79999999999999 C 93.50000000000003 55.79999999999999 93.50000000000003 55.79999999999999 93.50000000000003 55.79999999999999 C 94.10000000000002 56.19999999999999 94.70000000000003 56.39999999999999 95.40000000000003 56.39999999999999 C 96.30000000000004 56.39999999999999 97.30000000000004 55.99999999999999 97.90000000000003 55.19999999999999 C 98.30000000000004 54.59999999999999 98.50000000000003 53.89999999999999 98.50000000000003 53.29999999999999 C 98.4 53 98.4 52.9 98.4 52.8 z M 93.5 55.6 C 93.4 55.6 93.4 55.6 93.5 55.6 C 93.4 55.5 93.2 55.4 93.2 55.300000000000004 C 93.2 55.300000000000004 93.2 55.300000000000004 93.2 55.300000000000004 C 93 55.1 92.9 54.900000000000006 92.8 54.7 C 92.89999999999999 54.800000000000004 92.89999999999999 54.800000000000004 93 54.900000000000006 L 93 54.900000000000006 C 93 54.900000000000006 93 54.900000000000006 93 54.900000000000006 C 93.1 55.00000000000001 93.2 55.10000000000001 93.3 55.10000000000001 C 93.89999999999999 55.50000000000001 94.6 55.60000000000001 95.3 55.50000000000001 C 96.1 55.400000000000006 96.89999999999999 54.900000000000006 97.39999999999999 54.300000000000004 C 97.89999999999999 53.7 98.1 52.900000000000006 97.99999999999999 52.2 C 97.99999999999999 52.2 97.99999999999999 52.2 97.99999999999999 52.2 C 97.99999999999999 52 97.89999999999999 51.7 97.89999999999999 51.5 C 98.1 51.8 98.19999999999999 52 98.3 52.3 C 98.3 52.4 98.39999999999999 52.5 98.39999999999999 52.699999999999996 C 98.49999999999999 53.49999999999999 98.3 54.3 97.8 54.99999999999999 C 96.7 56.4 94.8 56.6 93.5 55.6 z" stroke-linecap="round" />
</g>
<g transform="matrix(1 0 0 1 145.6 195.01)" id="wLUiTo2sZHsgCe5SdjDNN"  >
<path style="stroke: none; stroke-width: 1; stroke-dasharray: none; stroke-linecap: butt; stroke-dashoffset: 0; stroke-linejoin: miter; stroke-miterlimit: 4; fill: rgb(39,50,64); fill-rule: nonzero; opacity: 1;" vector-effect="non-scaling-stroke"  transform=" translate(-95.25, -52.97)" d="M 98.6 52.7 C 98.5 51.800000000000004 98 51.1 97.39999999999999 50.5 C 97.39999999999999 50.5 97.3 50.5 97.3 50.4 C 96.6 49.9 95.7 49.6 94.8 49.699999999999996 C 93.89999999999999 49.8 93.1 50.3 92.6 50.99999999999999 C 92.1 51.699999999999996 91.8 52.49999999999999 91.89999999999999 53.29999999999999 L 91.89999999999999 53.29999999999999 C 91.89999999999999 53.29999999999999 91.89999999999999 53.39999999999999 91.89999999999999 53.39999999999999 C 91.99999999999999 54.29999999999999 92.49999999999999 55.099999999999994 93.19999999999999 55.599999999999994 C 93.19999999999999 55.599999999999994 93.19999999999999 55.599999999999994 93.19999999999999 55.599999999999994 C 94.69999999999999 56.699999999999996 96.69999999999999 56.39999999999999 97.89999999999999 54.89999999999999 C 98.5 54.5 98.7 53.6 98.6 52.7 z M 93.1 55 L 93.1 55 C 93.1 55 93 54.9 93 54.9 C 92.9 54.699999999999996 92.8 54.5 92.7 54.4 C 92.7 54.4 92.7 54.4 92.7 54.4 L 92.7 54.4 C 92.7 54.4 92.7 54.4 92.7 54.4 L 92.7 54.4 C 92.60000000000001 54.199999999999996 92.5 53.9 92.5 53.699999999999996 C 92.4 52.9 92.6 52.199999999999996 93.1 51.599999999999994 C 93.6 50.99999999999999 94.19999999999999 50.599999999999994 95 50.49999999999999 C 95.5 50.39999999999999 96 50.49999999999999 96.5 50.699999999999996 C 96.7 50.8 96.9 50.9 97.1 50.99999999999999 C 97.1 50.99999999999999 97.1 50.99999999999999 97.1 50.99999999999999 C 97.5 51.29999999999999 97.69999999999999 51.599999999999994 97.89999999999999 51.99999999999999 C 97.89999999999999 52.099999999999994 97.99999999999999 52.099999999999994 97.99999999999999 52.099999999999994 C 97.99999999999999 52.099999999999994 97.99999999999999 52.099999999999994 97.99999999999999 52.099999999999994 L 97.99999999999999 52.099999999999994 C 97.99999999999999 52.099999999999994 97.99999999999999 52.199999999999996 98.09999999999998 52.199999999999996 C 98.09999999999998 52.199999999999996 98.09999999999998 52.199999999999996 98.09999999999998 52.199999999999996 C 98.19999999999997 52.4 98.19999999999997 52.599999999999994 98.19999999999997 52.8 C 98.29999999999997 53.599999999999994 98.09999999999998 54.3 97.59999999999998 54.9 C 96.69999999999997 56.1 94.89999999999998 56.4 93.69999999999997 55.5 C 93.69999999999997 55.5 93.69999999999997 55.5 93.69999999999997 55.5 C 93.59999999999998 55.4 93.49999999999997 55.3 93.39999999999998 55.2 C 93.2 55.1 93.1 55.1 93.1 55 z" stroke-linecap="round" />
</g>
<g transform="matrix(1 0 0 1 145.65 195.14)" id="P7Dr2S3uYDI3Fti0Kl4X9"  >
<linearGradient id="SVGID_12" gradientUnits="userSpaceOnUse" gradientTransform="matrix(1 0 0 1 -93.3 -51.1)"  x1="93.2872" y1="53.1318" x2="97.2256" y2="53.1318">
<stop offset="0%" style="stop-color:rgb(239,194,235);stop-opacity: 1"/>
<stop offset="100%" style="stop-color:rgb(175,193,238);stop-opacity: 1"/>
</linearGradient>
<path style="stroke: none; stroke-width: 1; stroke-dasharray: none; stroke-linecap: butt; stroke-dashoffset: 0; stroke-linejoin: miter; stroke-miterlimit: 4; fill: url(#SVGID_12); fill-rule: nonzero; opacity: 1;" vector-effect="non-scaling-stroke"  transform=" translate(-2, -2)" d="M 0 2 C 0 0.89543 0.89543 0 2 0 C 3.10457 0 4 0.89543 4 2 C 4 3.10457 3.10457 4 2 4 C 0.89543 4 0 3.10457 0 2 z" stroke-linecap="round" />
</g>
<g transform="matrix(1 0 0 1 145.71 195.33)" id="cSo9xD1TCQYvkNrwhsyeG"  >
<path style="stroke: none; stroke-width: 1; stroke-dasharray: none; stroke-linecap: butt; stroke-dashoffset: 0; stroke-linejoin: miter; stroke-miterlimit: 4; fill: rgb(255,255,255); fill-rule: nonzero; opacity: 0.3;" vector-effect="non-scaling-stroke"  transform=" translate(-95.36, -53.29)" d="M 96.8 54.3 C 96.1 55.199999999999996 94.89999999999999 55.3 94 54.699999999999996 C 93.8 54.599999999999994 93.7 54.4 93.5 54.199999999999996 C 93.5 54.199999999999996 93.5 54.199999999999996 93.6 54.199999999999996 C 94.5 54.9 95.69999999999999 54.699999999999996 96.39999999999999 53.8 C 96.89999999999999 53.099999999999994 96.89999999999999 52.199999999999996 96.49999999999999 51.5 C 97.3 52.3 97.5 53.5 96.8 54.3 z" stroke-linecap="round" />
</g>
<g transform="matrix(1 0 0 1 145.56 195)" id="AY5JFdX6gi26EJ2xxkFAX"  >
<path style="stroke: none; stroke-width: 1; stroke-dasharray: none; stroke-linecap: butt; stroke-dashoffset: 0; stroke-linejoin: miter; stroke-miterlimit: 4; fill: rgb(57,0,117); fill-rule: nonzero; opacity: 0.35;" vector-effect="non-scaling-stroke"  transform=" translate(-95.21, -52.96)" d="M 97 52.2 C 97 52.2 97 52.1 97 52.2 C 96.1 51.5 94.8 51.6 94.2 52.5 C 93.7 53.2 93.7 54 94.10000000000001 54.7 C 93.30000000000001 54 93.2 52.800000000000004 93.80000000000001 52 C 94.50000000000001 51.1 95.70000000000002 51 96.60000000000001 51.6 C 96.7 51.8 96.9 52 97 52.2 z" stroke-linecap="round" />
</g>
<g transform="matrix(1 0 0 1 145.6 195.17)" id="kFG0jVPDuU34xNI_twceR"  >
<path style="stroke: none; stroke-width: 1; stroke-dasharray: none; stroke-linecap: butt; stroke-dashoffset: 0; stroke-linejoin: miter; stroke-miterlimit: 4; fill: rgb(39,50,64); fill-rule: nonzero; opacity: 1;" vector-effect="non-scaling-stroke"  transform=" translate(-95.25, -53.13)" d="M 96.6 51.4 C 96.1 51 95.6 50.9 95 51 C 94.4 51.1 93.9 51.4 93.5 51.8 C 92.8 52.8 92.9 54.199999999999996 93.9 54.9 C 93.9 54.9 93.9 54.9 93.9 54.9 C 94.30000000000001 55.199999999999996 94.7 55.3 95.2 55.3 C 95.9 55.3 96.5 55 97 54.4 C 97.7 53.5 97.6 52.1 96.6 51.4 z M 94.3 54.6 C 94.3 54.5 94.2 54.5 94.3 54.6 C 94.2 54.5 94.2 54.5 94.3 54.6 C 94.2 54.5 94.2 54.5 94.3 54.6 C 94.1 54.5 94 54.300000000000004 93.89999999999999 54.2 L 93.89999999999999 54.2 L 93.89999999999999 54.2 C 93.49999999999999 53.6 93.49999999999999 52.800000000000004 93.99999999999999 52.2 C 94.29999999999998 51.800000000000004 94.69999999999999 51.6 95.09999999999998 51.5 C 95.49999999999999 51.4 95.99999999999999 51.6 96.39999999999998 51.8 C 96.39999999999998 51.8 96.39999999999998 51.8 96.39999999999998 51.8 C 96.39999999999998 51.8 96.49999999999997 51.8 96.49999999999997 51.9 L 96.49999999999997 51.9 C 96.69999999999997 52 96.79999999999997 52.199999999999996 96.89999999999998 52.4 C 96.89999999999998 52.4 96.89999999999998 52.4 96.89999999999998 52.4 C 97.19999999999997 53 97.19999999999997 53.699999999999996 96.79999999999998 54.3 C 96.1 54.9 95 55.1 94.3 54.6 z" stroke-linecap="round" />
</g>
<g transform="matrix(1 0 0 1 147.86 188.77)" id="WZD7kBV3SVefqcqSRJcx0"  >
<path style="stroke: none; stroke-width: 1; stroke-dasharray: none; stroke-linecap: butt; stroke-dashoffset: 0; stroke-linejoin: miter; stroke-miterlimit: 4; fill: rgb(255,255,255); fill-rule: nonzero; opacity: 0.2;" vector-effect="non-scaling-stroke"  transform=" translate(-97.51, -46.73)" d="M 98.7 46.3 C 98.4 45.9 97.4 46.099999999999994 96.9 46.4 C 96.4 46.699999999999996 96.2 47 96.30000000000001 47.199999999999996 C 96.50000000000001 47.49999999999999 96.9 47.4 97.4 47.199999999999996 C 97.8 47 99 46.8 98.7 46.3 z" stroke-linecap="round" />
</g>
<g transform="matrix(1 0 0 1 149.88 188.2)" id="LLXYkxRVq_fYd-CzQCz37"  >
<path style="stroke: none; stroke-width: 1; stroke-dasharray: none; stroke-linecap: butt; stroke-dashoffset: 0; stroke-linejoin: miter; stroke-miterlimit: 4; fill: rgb(255,255,255); fill-rule: nonzero; opacity: 0.2;" vector-effect="non-scaling-stroke"  transform=" translate(-99.53, -46.16)" d="M 100.2 46.1 C 100 45.800000000000004 99.3 45.7 99.10000000000001 45.800000000000004 C 98.80000000000001 45.900000000000006 98.7 46.1 98.9 46.300000000000004 C 99.10000000000001 46.6 99.4 46.6 99.60000000000001 46.50000000000001 C 99.8 46.4 100.5 46.5 100.2 46.1 z" stroke-linecap="round" />
</g>
<g transform="matrix(1 0 0 1 138.01 205.29)" id="4FKRI22adGWBCl8LC7a60"  >
<path style="stroke: none; stroke-width: 1; stroke-dasharray: none; stroke-linecap: butt; stroke-dashoffset: 0; stroke-linejoin: miter; stroke-miterlimit: 4; fill: rgb(236,28,36); fill-rule: nonzero; opacity: 1;" vector-effect="non-scaling-stroke"  transform=" translate(-87.66, -63.25)" d="M 88.7 63.8 C 87.8 65 85.9 65.5 85.9 65.5 C 85.9 65.5 85.9 65.5 85.9 65.5 C 85.9 65.3 85.9 63.5 86.80000000000001 62.4 C 87.60000000000001 61.3 89.10000000000001 61 89.4 61 C 89.4 61 89.4 61 89.4 61 C 89.4 61 89.6 62.6 88.7 63.8 z" stroke-linecap="round" />
</g>
<g transform="matrix(1 0 0 1 138.05 205.34)" id="lUh7-hIUE-Dv9yczWDnFR"  >
<path style="stroke: none; stroke-width: 1; stroke-dasharray: none; stroke-linecap: butt; stroke-dashoffset: 0; stroke-linejoin: miter; stroke-miterlimit: 4; fill: rgb(255,255,255); fill-rule: nonzero; opacity: 0.6;" vector-effect="non-scaling-stroke"  transform=" translate(-87.7, -63.3)" d="M 89.5 61 C 89.5 61 89.5 61.1 89.5 61.3 C 89 61.4 87.8 61.699999999999996 87.1 62.699999999999996 C 86.39999999999999 63.599999999999994 86.3 64.89999999999999 86.19999999999999 65.5 C 85.99999999999999 65.6 85.89999999999999 65.6 85.89999999999999 65.6 C 85.89999999999999 65.6 85.89999999999999 65.6 85.89999999999999 65.6 C 85.89999999999999 65.39999999999999 85.89999999999999 63.599999999999994 86.8 62.49999999999999 C 87.7 61.3 89.2 61 89.5 61 C 89.5 61 89.5 61 89.5 61 z" stroke-linecap="round" />
</g>
<g transform="matrix(1 0 0 1 137.97 205.29)" id="RY-0AVKXxkedog8LyGicT"  >
<path style="stroke: none; stroke-width: 1; stroke-dasharray: none; stroke-linecap: butt; stroke-dashoffset: 0; stroke-linejoin: miter; stroke-miterlimit: 4; fill: rgb(57,0,117); fill-rule: nonzero; opacity: 0.35;" vector-effect="non-scaling-stroke"  transform=" translate(-87.62, -63.25)" d="M 88.7 63.8 C 87.8 65 85.9 65.5 85.9 65.5 C 85.9 65.5 85.9 65.5 85.9 65.5 L 89.30000000000001 61 C 89.30000000000001 61 89.30000000000001 61 89.30000000000001 61 C 89.30000000000001 61 89.6 62.6 88.7 63.8 z" stroke-linecap="round" />
</g>
<g transform="matrix(1 0 0 1 250.4 233.29)" id="FQtWwmZGWKj4_MwVYa4NJ"  >
<path style="stroke: none; stroke-width: 1; stroke-dasharray: none; stroke-linecap: butt; stroke-dashoffset: 0; stroke-linejoin: miter; stroke-miterlimit: 4; fill: rgb(39,50,64); fill-rule: nonzero; opacity: 1;" vector-effect="non-scaling-stroke"  transform=" translate(-27.05, -163.25)" d="M 39.9 170.9 C 39.9 176.8 35.699999999999996 179.8 28.4 179.8 L 14.2 179.8 L 14.2 146.70000000000002 L 27.1 146.70000000000002 C 34.6 146.70000000000002 38.7 149.60000000000002 38.7 155.70000000000002 C 38.7 159.00000000000003 37.400000000000006 161.4 34.900000000000006 162.9 C 38 164.2 39.9 166.9 39.9 170.9 z M 20.8 152.4 L 20.8 160.6 L 27.4 160.6 C 28.599999999999998 160.6 29.7 160.4 30.799999999999997 159.79999999999998 C 31.9 159.2 32.599999999999994 157.99999999999997 32.599999999999994 156.49999999999997 C 32.599999999999994 154.09999999999997 31.099999999999994 152.49999999999997 27.699999999999996 152.49999999999997 L 20.8 152.49999999999997 z M 28.3 174 C 31.8 174 33.3 172.3 33.3 169.8 C 33.3 166.4 30.4 165.70000000000002 28.199999999999996 165.70000000000002 L 20.799999999999997 165.70000000000002 L 20.799999999999997 174.00000000000003 L 28.3 174.00000000000003 z" stroke-linecap="round" />
</g>
<g transform="matrix(1 0 0 1 271.65 233.29)" id="8BlI_VjEp-WZyzt0URSHx"  >
<path style="stroke: none; stroke-width: 1; stroke-dasharray: none; stroke-linecap: butt; stroke-dashoffset: 0; stroke-linejoin: miter; stroke-miterlimit: 4; fill: rgb(39,50,64); fill-rule: nonzero; opacity: 1;" vector-effect="non-scaling-stroke"  transform=" translate(-48.3, -163.25)" d="M 45 179.8 L 45 146.70000000000002 L 51.6 146.70000000000002 L 51.6 179.8 L 45 179.8 z" stroke-linecap="round" />
</g>
<g transform="matrix(1 0 0 1 292.45 237.44)" id="qeWTiBcjlQRTiLXag3Brh"  >
<path style="stroke: none; stroke-width: 1; stroke-dasharray: none; stroke-linecap: butt; stroke-dashoffset: 0; stroke-linejoin: miter; stroke-miterlimit: 4; fill: rgb(39,50,64); fill-rule: nonzero; opacity: 1;" vector-effect="non-scaling-stroke"  transform=" translate(-69.1, -167.4)" d="M 59.8 176.7 C 57.4 174.29999999999998 56.199999999999996 171.2 56.199999999999996 167.39999999999998 C 56.199999999999996 163.59999999999997 57.4 160.49999999999997 59.8 158.09999999999997 C 62.199999999999996 155.69999999999996 65.3 154.49999999999997 69.1 154.49999999999997 C 72.89999999999999 154.49999999999997 76 155.69999999999996 78.39999999999999 158.09999999999997 C 80.8 160.49999999999997 81.99999999999999 163.59999999999997 81.99999999999999 167.39999999999998 C 81.99999999999999 171.2 80.79999999999998 174.29999999999998 78.39999999999999 176.7 C 75.99999999999999 179.1 72.89999999999999 180.29999999999998 69.1 180.29999999999998 C 65.3 180.3 62.2 179.1 59.8 176.7 z M 73.7 172.8 C 74.9 171.5 75.5 169.70000000000002 75.5 167.4 C 75.5 165.1 74.9 163.3 73.7 162 C 72.5 160.7 70.9 160.1 69 160.1 C 67.1 160.1 65.6 160.7 64.4 162 C 63.2 163.3 62.50000000000001 165.1 62.50000000000001 167.4 C 62.50000000000001 169.70000000000002 63.10000000000001 171.5 64.4 172.8 C 65.60000000000001 174.10000000000002 67.2 174.70000000000002 69.10000000000001 174.70000000000002 C 71 174.7 72.5 174 73.7 172.8 z" stroke-linecap="round" />
</g>
<g transform="matrix(1 0 0 1 321.3 237.64)" id="Ffgso7PyR2aseJbcL9vd3"  >
<path style="stroke: none; stroke-width: 1; stroke-dasharray: none; stroke-linecap: butt; stroke-dashoffset: 0; stroke-linejoin: miter; stroke-miterlimit: 4; fill: rgb(39,50,64); fill-rule: nonzero; opacity: 1;" vector-effect="non-scaling-stroke"  transform=" translate(-97.95, -167.6)" d="M 103.4 155.1 L 110 155.1 L 110 179.7 L 103.6 179.7 L 103.6 177.1 C 101.5 179.2 98.89999999999999 180.2 95.69999999999999 180.2 C 89.39999999999999 180.2 85.89999999999999 176 85.89999999999999 168.39999999999998 L 85.89999999999999 154.99999999999997 L 92.49999999999999 154.99999999999997 L 92.49999999999999 168.39999999999998 C 92.49999999999999 171.99999999999997 94.29999999999998 174.09999999999997 97.49999999999999 174.09999999999997 C 99.19999999999999 174.09999999999997 100.59999999999998 173.49999999999997 101.69999999999999 172.39999999999998 C 102.79999999999998 171.29999999999998 103.29999999999998 169.49999999999997 103.29999999999998 167.29999999999998 L 103.29999999999998 155.1 z" stroke-linecap="round" />
</g>
<g transform="matrix(1 0 0 1 352.75 241.49)" id="LskZdpsQJ-85kgqcgq_Bv"  >
<path style="stroke: none; stroke-width: 1; stroke-dasharray: none; stroke-linecap: butt; stroke-dashoffset: 0; stroke-linejoin: miter; stroke-miterlimit: 4; fill: rgb(39,50,64); fill-rule: nonzero; opacity: 1;" vector-effect="non-scaling-stroke"  transform=" translate(-129.4, -171.45)" d="M 139.1 157.9 C 141.29999999999998 160.1 142.6 163.5 142.6 167.4 C 142.6 171.3 141.29999999999998 174.6 139.1 176.8 C 136.9 179 133.79999999999998 180.3 130.4 180.3 C 127.2 180.3 124.60000000000001 179.3 122.60000000000001 177.3 L 122.60000000000001 188.5 L 116.2 188.5 L 116.2 155 L 122.5 155 L 122.5 157.5 C 124.7 155.4 127.4 154.4 130.6 154.4 C 133.8 154.4 136.9 155.7 139.1 157.9 z M 134.3 172.7 C 135.60000000000002 171.39999999999998 136.20000000000002 169.7 136.20000000000002 167.39999999999998 C 136.20000000000002 165.09999999999997 135.60000000000002 163.29999999999998 134.3 162.09999999999997 C 133 160.79999999999995 131.4 160.19999999999996 129.5 160.19999999999996 C 127.6 160.19999999999996 126 160.79999999999995 124.7 162.09999999999997 C 123.4 163.39999999999998 122.8 165.19999999999996 122.8 167.49999999999997 C 122.8 169.79999999999998 123.39999999999999 171.59999999999997 124.7 172.89999999999998 C 126 174.2 127.5 174.79999999999998 129.5 174.79999999999998 C 131.5 174.79999999999998 133 174 134.3 172.7 z" stroke-linecap="round" />
</g>
<g transform="matrix(1 0 0 1 383.65 241.49)" id="nS64hW8CUnzscsARRmRwL"  >
<path style="stroke: none; stroke-width: 1; stroke-dasharray: none; stroke-linecap: butt; stroke-dashoffset: 0; stroke-linejoin: miter; stroke-miterlimit: 4; fill: rgb(39,50,64); fill-rule: nonzero; opacity: 1;" vector-effect="non-scaling-stroke"  transform=" translate(-160.3, -171.45)" d="M 170 157.9 C 172.2 160.1 173.5 163.5 173.5 167.4 C 173.5 171.3 172.2 174.6 170 176.8 C 167.8 179 164.7 180.3 161.3 180.3 C 158.10000000000002 180.3 155.5 179.3 153.5 177.3 L 153.5 188.5 L 147.1 188.5 L 147.1 155 L 153.4 155 L 153.4 157.5 C 155.6 155.4 158.3 154.4 161.5 154.4 C 164.8 154.4 167.8 155.7 170 157.9 z M 165.3 172.7 C 166.60000000000002 171.39999999999998 167.20000000000002 169.7 167.20000000000002 167.39999999999998 C 167.20000000000002 165.09999999999997 166.60000000000002 163.29999999999998 165.3 162.09999999999997 C 164 160.79999999999995 162.4 160.19999999999996 160.5 160.19999999999996 C 158.6 160.19999999999996 157 160.79999999999995 155.7 162.09999999999997 C 154.39999999999998 163.39999999999998 153.79999999999998 165.19999999999996 153.79999999999998 167.49999999999997 C 153.79999999999998 169.79999999999998 154.39999999999998 171.59999999999997 155.7 172.89999999999998 C 157 174.2 158.5 174.79999999999998 160.5 174.79999999999998 C 162.5 174.79999999999998 164 174 165.3 172.7 z" stroke-linecap="round" />
</g>
<g transform="matrix(1 0 0 1 411.3 242.19)" id="7B0TWnRZZYkbQHHPcdsqS"  >
<path style="stroke: none; stroke-width: 1; stroke-dasharray: none; stroke-linecap: butt; stroke-dashoffset: 0; stroke-linejoin: miter; stroke-miterlimit: 4; fill: rgb(39,50,64); fill-rule: nonzero; opacity: 1;" vector-effect="non-scaling-stroke"  transform=" translate(-187.95, -172.15)" d="M 193.9 155.1 L 201.1 155.1 L 187.7 189.2 L 181.29999999999998 189.2 L 185.2 179.5 L 174.79999999999998 155.1 L 182.1 155.1 L 188.2 171.29999999999998 L 193.9 155.1 z" stroke-linecap="round" />
</g>
</svg>